#N canvas 0 530 1366 683 12;
#X obj 72 132 soundfiler;
#X floatatom 72 157 0 0 0 0 - - -;
#N canvas 0 50 450 250 (subpatch) 0;
#X array \$0-audio 2.59342e+06 float 2;
#X coords 0 1 2.59342e+06 -1 600 140 1 0 0;
#X restore 723 31 graph;
#N canvas 1 530 450 250 (subpatch) 0;
#X array \$0-audioSquared 2.59342e+06 float 2;
#X coords 0 1 2.59342e+06 -1 600 140 1 0 0;
#X restore 723 191 graph;
#X text 58 9 Audio file;
#X obj 72 57 list prepend read -resize;
#X obj 72 107 list trim;
#X msg 117 33 ./testAudio.wav;
#N canvas 0 50 450 250 (subpatch) 0;
#X array \$0-audioEnvelope 2.59342e+06 float 0;
#X coords 0 1 2.59342e+06 -1 600 140 1 0 0;
#X restore 723 351 graph;
#X obj 72 82 list append \$0-audio;
#X floatatom 164 182 5 0 0 1 sampleRate - -;
#X obj 164 157 unpack f f f f s;
#N canvas 0 530 1366 683 buildAudioEnvelope 0;
#X obj 167 96 inlet;
#X obj 222 676 outlet;
#X text 187 702 bang when finished;
#X text 115 77 audio size (n of samples);
#X obj 410 154 t b f;
#X obj 410 234 array get \$0-audio;
#X obj 442 209 array size \$0-audioEnvelope;
#X obj 452 184 array size \$0-audioSquared;
#X obj 456 435 array set \$0-audioSquared;
#X obj 410 259 list prepend;
#X msg 551 234 matrix 1 \$1;
#X obj 410 284 list trim;
#X obj 410 309 mtx_.^ 2;
#X obj 410 384 mtx;
#X obj 410 334 t b a;
#X msg 410 359 row;
#X obj 410 535 f;
#X msg 428 510 0, f 1;
#X obj 410 486 until;
#X obj 410 410 t b b a;
#X obj 410 435 f;
#X obj 440 535 + 1;
#X obj 428 680 tabread \$0-audioSquared;
#X obj 428 758 f;
#X obj 428 706 +;
#X obj 554 655 moses 0;
#X obj 554 629 -;
#X text 585 628 1 second window;
#X obj 600 680 tabread \$0-audioSquared;
#X obj 428 732 -;
#X obj 428 810 pow 0.5;
#X obj 428 837 tabwrite \$0-audioEnvelope;
#X obj 428 784 /;
#X obj 604 785 -;
#X obj 622 761 / 2;
#X obj 604 810 moses 0;
#X obj 410 584 sel;
#X obj 410 460 t f f;
#X obj 428 560 - 1;
#X obj 428 609 t f f;
#X obj 572 603 r \$0-audioSampleRate;
#X obj 622 736 r \$0-audioSampleRate;
#X obj 458 758 r \$0-audioSampleRate;
#X connect 0 0 4 0;
#X connect 4 0 5 0;
#X connect 4 1 7 0;
#X connect 4 1 6 0;
#X connect 4 1 10 0;
#X connect 4 1 20 1;
#X connect 5 0 9 0;
#X connect 9 0 11 0;
#X connect 10 0 9 1;
#X connect 11 0 12 0;
#X connect 12 0 14 0;
#X connect 13 0 19 0;
#X connect 14 0 15 0;
#X connect 14 1 13 1;
#X connect 15 0 13 0;
#X connect 16 0 36 0;
#X connect 17 0 16 1;
#X connect 17 0 24 1;
#X connect 17 0 29 1;
#X connect 18 0 16 0;
#X connect 19 0 20 0;
#X connect 19 1 17 0;
#X connect 19 2 8 0;
#X connect 20 0 37 0;
#X connect 21 0 16 1;
#X connect 22 0 24 0;
#X connect 23 0 24 1;
#X connect 23 0 32 0;
#X connect 24 0 29 0;
#X connect 25 1 28 0;
#X connect 26 0 25 0;
#X connect 28 0 29 1;
#X connect 29 0 23 0;
#X connect 30 0 31 0;
#X connect 32 0 30 0;
#X connect 33 0 35 0;
#X connect 34 0 33 1;
#X connect 35 1 31 1;
#X connect 36 0 1 0;
#X connect 36 1 39 0;
#X connect 37 0 18 0;
#X connect 37 1 38 0;
#X connect 38 0 36 1;
#X connect 39 0 22 0;
#X connect 39 1 21 0;
#X connect 39 1 26 0;
#X connect 39 1 33 0;
#X connect 40 0 26 1;
#X connect 41 0 34 0;
#X connect 42 0 32 1;
#X restore 72 233 pd buildAudioEnvelope;
#X obj 164 206 s \$0-audioSampleRate;
#X obj 72 284 list prepend;
#X obj 72 309 list trim;
#X obj 72 259 array get \$0-audioEnvelope;
#X obj 72 183 t f f;
#X obj 118 354 mtx_mean;
#X floatatom 118 379 5 0 0 0 - - -;
#X msg 263 259 matrix \$1 1;
#X obj 72 334 t a a;
#X obj 72 402 mtx_> 0;
#X obj 72 479 mtx;
#X msg 72 453 col;
#X obj 72 427 t b a;
#N canvas 0 50 450 250 (subpatch) 0;
#X array \$0-audioSelection 2.59342e+06 float 0;
#X coords 0 1 2.59342e+06 -1 600 140 1 0 0;
#X restore 723 31 graph;
#X obj 72 505 array set \$0-audioSelection;
#X connect 0 0 1 0;
#X connect 0 1 11 0;
#X connect 1 0 17 0;
#X connect 5 0 9 0;
#X connect 6 0 0 0;
#X connect 7 0 5 0;
#X connect 9 0 6 0;
#X connect 10 0 13 0;
#X connect 11 0 10 0;
#X connect 12 0 16 0;
#X connect 14 0 15 0;
#X connect 15 0 21 0;
#X connect 16 0 14 0;
#X connect 17 0 12 0;
#X connect 17 1 20 0;
#X connect 18 0 19 0;
#X connect 19 0 22 1;
#X connect 20 0 14 1;
#X connect 21 0 22 0;
#X connect 21 1 18 0;
#X connect 22 0 25 0;
#X connect 23 0 27 0;
#X connect 24 0 23 0;
#X connect 25 0 24 0;
#X connect 25 1 23 1;
