#N canvas 0 85 1366 683 12;
#X obj 285 208 osc~;
#X floatatom 138 186 5 0 0 0 F0 - -;
#X obj 221 216 * 2;
#X obj 223 244 * 3;
#X obj 220 279 * 4;
#X obj 219 312 * 5;
#X obj 282 236 osc~;
#X obj 283 295 osc~;
#X obj 278 326 osc~;
#X obj 282 265 osc~;
#X obj 278 393 osc~;
#X obj 273 424 osc~;
#X obj 277 363 osc~;
#X obj 218 342 * 6;
#X obj 212 378 * 7;
#X obj 212 410 * 8;
#N canvas 0 50 450 250 (subpatch) 0;
#X array scope 4410 float 0;
#X coords 0 1 4409 -1 200 140 1 0 0;
#X restore 936 170 graph;
#X obj 812 526 tgl 15 0 empty empty empty 17 7 0 10 -262144 -1 -1 1
1;
#X obj 484 280 *~;
#X obj 811 570 tabwrite~ scope;
#X obj 594 592 cyclone/output~;
#X obj 647 315 *~;
#X obj 626 480 *~;
#X obj 483 314 +~ 1;
#X obj 644 394 *~;
#X obj 644 419 +~;
#X obj 645 447 osc~;
#X obj 817 547 metro 100;
#X obj 626 159 *~;
#X obj 630 186 *~;
#X obj 626 211 +~;
#X obj 754 242 osc~;
#X obj 739 283 *~;
#X obj 226 178 * 0.25;
#X obj 664 155 /~ 2;
#X obj 209 473 * 256;
#X connect 0 0 28 0;
#X connect 1 0 2 0;
#X connect 1 0 0 0;
#X connect 1 0 3 0;
#X connect 1 0 4 0;
#X connect 1 0 5 0;
#X connect 1 0 13 0;
#X connect 1 0 14 0;
#X connect 1 0 15 0;
#X connect 1 0 33 0;
#X connect 1 0 35 0;
#X connect 2 0 6 0;
#X connect 3 0 9 0;
#X connect 4 0 7 0;
#X connect 5 0 8 0;
#X connect 6 0 18 0;
#X connect 7 0 21 0;
#X connect 8 0 28 0;
#X connect 9 0 18 1;
#X connect 10 0 21 1;
#X connect 11 0 28 0;
#X connect 13 0 12 0;
#X connect 14 0 10 0;
#X connect 15 0 11 0;
#X connect 17 0 27 0;
#X connect 18 0 23 0;
#X connect 21 0 24 0;
#X connect 22 0 20 0;
#X connect 22 0 20 1;
#X connect 22 0 19 0;
#X connect 23 0 22 0;
#X connect 24 0 25 0;
#X connect 25 0 26 0;
#X connect 26 0 22 1;
#X connect 27 0 19 0;
#X connect 28 0 29 0;
#X connect 29 0 30 0;
#X connect 30 0 32 1;
#X connect 31 0 32 0;
#X connect 32 0 24 1;
#X connect 32 0 25 1;
#X connect 33 0 31 0;
#X connect 34 0 29 1;
#X connect 35 0 34 0;
