#N canvas 0 446 1366 685 12;
#X obj 67 35 adc~;
#X obj 67 235 dac~;
#X obj 117 91 tgl 15 0 empty empty empty 17 7 0 10 -262144 -1 -1 0
1;
#X obj 66 138 *~;
#X obj 117 112 == 0;
#X obj 99 63 liftering~ 1024;
#X obj 99 138 *~ 1;
#X connect 0 0 3 0;
#X connect 0 0 5 0;
#X connect 2 0 3 1;
#X connect 2 0 4 0;
#X connect 3 0 1 0;
#X connect 3 0 1 1;
#X connect 4 0 6 1;
#X connect 5 0 6 0;
#X connect 6 0 1 0;
#X connect 6 0 1 1;
