#N canvas 436 1236 1440 847 12;
#X declare -path ./abstractions;
#X declare -path ./samples;
#X obj 27 23 declare -path ./abstractions;
#N canvas 446 1186 1440 847 audio-buffers 0;
#X obj 25 220 loadbang;
#X floatatom 85 296 5 0 0 1 octave\ number - - 0;
#X obj 25 245 bng 19 250 50 0 empty empty empty 0 -10 0 12 #fcfcfc #000000 #000000;
#X obj 85 404 soundfiler;
#X floatatom 85 428 5 0 0 1 length - - 0;
#X obj 273 60 table \$0-C0_L;
#X obj 273 84 table \$0-C0_R;
#X obj 383 60 table \$0-C1_L;
#X obj 383 84 table \$0-C1_R;
#X obj 85 344 pack f \$0;
#X obj 493 60 table \$0-C2_L;
#X obj 493 84 table \$0-C2_R;
#X obj 603 60 table \$0-C3_L;
#X obj 603 84 table \$0-C3_R;
#X obj 713 60 table \$0-C4_L;
#X obj 713 84 table \$0-C4_R;
#X obj 823 60 table \$0-C5_L;
#X obj 823 84 table \$0-C5_R;
#X obj 933 60 table \$0-C6_L;
#X obj 933 84 table \$0-C6_R;
#X obj 153 172 table \$0-sample_lengths;
#X obj 85 320 t f f, f 26;
#X obj 85 451 tabwrite \$0-sample_lengths;
#X obj 273 108 table \$0-F#0_L;
#X obj 273 132 table \$0-F#0_R;
#X obj 383 108 table \$0-F#1_L;
#X obj 383 132 table \$0-F#1_R;
#X obj 493 108 table \$0-F#2_L;
#X obj 493 132 table \$0-F#2_R;
#X obj 603 108 table \$0-F#3_L;
#X obj 603 132 table \$0-F#3_R;
#X obj 713 108 table \$0-F#4_L;
#X obj 713 132 table \$0-F#4_R;
#X obj 823 108 table \$0-F#5_L;
#X obj 823 132 table \$0-F#5_R;
#X obj 933 108 table \$0-F#6_L;
#X obj 933 132 table \$0-F#6_R;
#X text 323 172 *all samples in the same octave must have the same length;
#X obj 153 60 table \$0-C-1_L;
#X obj 153 84 table \$0-C-1_R;
#X obj 153 108 table \$0-F#-1_L;
#X obj 153 132 table \$0-F#-1_R;
#X text 323 192 the indexes of the sample lengths are shifted so as to accept negative octaves (C-1), f 84;
#X obj 1043 60 table \$0-C7_L;
#X obj 1043 84 table \$0-C7_R;
#X obj 1043 108 table \$0-F#7_L;
#X obj 1043 132 table \$0-F#7_R;
#X obj 33 60 table \$0-C-2_L;
#X obj 33 84 table \$0-C-2_R;
#X obj 33 108 table \$0-F#-2_L;
#X obj 33 132 table \$0-F#-2_R;
#X text 32 30 Even if the instrument does not have sound on octaves too low or too high \, we must include an empty .wav file \, to avoid midi notes out of range., f 144;
#X obj 1153 60 table \$0-C8_L;
#X obj 1153 84 table \$0-C8_R;
#X obj 1153 108 table \$0-F#8_L;
#X obj 1153 132 table \$0-F#8_R;
#X obj 264 344 + 2;
#X obj 25 271 uzi 11 -2;
#X msg 85 368 read -resize C\$1.wav \$2-C\$1_L \$2-C\$1_R \, read -resize F#\$1.wav \$2-F#\$1_L \$2-F#\$1_R, f 42;
#X connect 0 0 2 0;
#X connect 1 0 21 0;
#X connect 2 0 57 0;
#X connect 3 0 4 0;
#X connect 4 0 22 0;
#X connect 9 0 58 0;
#X connect 21 0 9 0;
#X connect 21 1 56 0;
#X connect 56 0 22 1;
#X connect 57 2 1 0;
#X connect 58 0 3 0;
#X restore 239 23 pd audio-buffers;
#X obj 27 53 declare -path ./samples;
#N canvas 511 1539 450 300 adsr 0;
#X msg 92 164 all adsr \$1 \$2 \$3 \$4;
#X obj 92 138 pack f f f f, f 18;
#X floatatom 92 108 5 0 3000 0 - - - 0;
#X floatatom 161 108 5 0 100 0 - - - 0;
#X floatatom 127 108 5 0 3000 0 - - - 0;
#X floatatom 196 108 5 0 3000 0 - - - 0;
#X obj 66 123 bng 15 250 50 0 empty empty empty 17 7 0 10 #fcfcfc #000000 #000000;
#X obj 92 74 unpack f f f f, f 18;
#X msg 92 52 2 500 80 500;
#X obj 92 26 r \$0-lb_0;
#X obj 92 190 outlet;
#X connect 0 0 10 0;
#X connect 1 0 0 0;
#X connect 2 0 1 0;
#X connect 2 0 6 0;
#X connect 3 0 1 2;
#X connect 3 0 6 0;
#X connect 4 0 1 1;
#X connect 4 0 6 0;
#X connect 5 0 1 3;
#X connect 5 0 6 0;
#X connect 6 0 1 0;
#X connect 7 0 2 0;
#X connect 7 1 4 0;
#X connect 7 2 3 0;
#X connect 7 3 5 0;
#X connect 8 0 7 0;
#X connect 9 0 8 0;
#X restore 135 294 pd adsr;
#X obj 27 110 f \$0;
#N canvas 517 1395 450 300 init 0;
#X obj 60 39 loadbang;
#X obj 60 93 t b b;
#X obj 114 134 s \$0-lb_0;
#X obj 88 173 s \$0-lb_1;
#X obj 79 63 bng 19 250 50 0 empty empty empty 0 -10 0 12 #fcfcfc #000000 #000000;
#X connect 0 0 4 0;
#X connect 1 0 3 0;
#X connect 1 1 2 0;
#X connect 4 0 1 0;
#X restore 369 23 pd init;
#X obj 27 84 r \$0-lb_0;
#X obj 52 320 clone -s 1 voice~ 6;
#X obj 52 294 pack 0 0 0;
#X obj 52 171 notein, f 10;
#X obj 52 244 pack f f f;
#X obj 52 218 - 0;
#X obj 52 269 poly 6 1, f 10;
#X obj 52 370 clip~ -1 1;
#X obj 182 370 clip~ -1 1;
#X obj 52 404 output~;
#X msg 27 135 all instrument_uuid \$1;
#X floatatom 52 195 5 0 0 0 - - - 0;
#X obj 62 345 bp~ 800 4;
#X obj 192 345 bp~ 800 4;
#X connect 3 0 7 0;
#X connect 4 0 16 0;
#X connect 6 0 4 0;
#X connect 7 0 13 0;
#X connect 7 1 14 0;
#X connect 8 0 7 0;
#X connect 9 0 17 0;
#X connect 9 1 10 1;
#X connect 9 2 10 2;
#X connect 10 0 12 0;
#X connect 11 0 10 0;
#X connect 12 0 8 0;
#X connect 12 1 8 1;
#X connect 12 2 8 2;
#X connect 13 0 15 0;
#X connect 14 0 15 1;
#X connect 16 0 7 0;
#X connect 17 0 11 0;
#X connect 18 0 13 0;
#X connect 19 0 14 0;
